<svg width="43" height="43" viewBox="0 0 43 43" fill="none" xmlns="http://www.w3.org/2000/svg">
<rect x="2.64086" y="12.5595" width="29" height="29" rx="3.5" transform="rotate(-20 2.64086 12.5595)" stroke="url(#paint0_linear_2567_2609)"/>
<rect y="21.2132" width="30" height="30" rx="4" transform="rotate(-45 0 21.2132)" fill="url(#paint1_linear_2567_2609)"/>
<path d="M23.3513 30.286C21.3753 30.286 19.6853 29.896 18.2813 29.116C16.8773 28.336 15.7939 27.244 15.0313 25.84C14.2859 24.4187 13.9133 22.746 13.9133 20.822C13.9133 19.3833 14.1213 18.092 14.5373 16.948C14.9706 15.7867 15.5946 14.7987 16.4093 13.984C17.2239 13.152 18.2119 12.5107 19.3733 12.06C20.5519 11.6093 21.8779 11.384 23.3513 11.384C24.2179 11.384 25.0933 11.4967 25.9773 11.722C26.8786 11.93 27.6586 12.2333 28.3173 12.632C28.7506 12.8747 29.0453 13.178 29.2013 13.542C29.3573 13.906 29.4006 14.27 29.3313 14.634C29.2793 14.998 29.1319 15.31 28.8893 15.57C28.6639 15.83 28.3779 15.9947 28.0313 16.064C27.6846 16.1333 27.2946 16.0553 26.8613 15.83C26.3413 15.518 25.7953 15.2927 25.2233 15.154C24.6513 15.0153 24.0706 14.946 23.4813 14.946C22.3199 14.946 21.3406 15.18 20.5433 15.648C19.7633 16.0987 19.1739 16.7573 18.7753 17.624C18.3766 18.4907 18.1773 19.5567 18.1773 20.822C18.1773 22.07 18.3766 23.136 18.7753 24.02C19.1739 24.904 19.7633 25.58 20.5433 26.048C21.3406 26.4987 22.3199 26.724 23.4813 26.724C24.0359 26.724 24.5993 26.6547 25.1713 26.516C25.7606 26.3773 26.3239 26.1607 26.8613 25.866C27.3119 25.6407 27.7106 25.5627 28.0573 25.632C28.4213 25.684 28.7159 25.84 28.9413 26.1C29.1839 26.3427 29.3313 26.6373 29.3833 26.984C29.4526 27.3307 29.4179 27.6773 29.2793 28.024C29.1406 28.3707 28.8806 28.6653 28.4993 28.908C27.8579 29.3413 27.0693 29.6793 26.1333 29.922C25.1973 30.1647 24.2699 30.286 23.3513 30.286Z" fill="white"/>
<defs>
<linearGradient id="paint0_linear_2567_2609" x1="17" y1="12.2606" x2="17" y2="42.2606" gradientUnits="userSpaceOnUse">
<stop stop-color="#E86A42"/>
<stop offset="1" stop-color="#B93F26"/>
</linearGradient>
<linearGradient id="paint1_linear_2567_2609" x1="15" y1="21.2132" x2="15" y2="51.2132" gradientUnits="userSpaceOnUse">
<stop stop-color="#E86A42"/>
<stop offset="1" stop-color="#B93F26"/>
</linearGradient>
</defs>
</svg>
